<svg width="275" height="279" viewBox="0 0 275 279" fill="none" xmlns="http://www.w3.org/2000/svg">
<path d="M131.545 264.045C123.727 264.015 117 262.091 111.364 258.273C105.758 254.455 101.439 248.924 98.4091 241.682C95.4091 234.439 93.9242 225.727 93.9545 215.545C93.9545 205.394 95.4545 196.742 98.4545 189.591C101.485 182.439 105.803 177 111.409 173.273C117.045 169.515 123.758 167.636 131.545 167.636C139.333 167.636 146.03 169.515 151.636 173.273C157.273 177.03 161.606 182.485 164.636 189.636C167.667 196.758 169.167 205.394 169.136 215.545C169.136 225.758 167.621 234.485 164.591 241.727C161.591 248.97 157.288 254.5 151.682 258.318C146.076 262.136 139.364 264.045 131.545 264.045ZM131.545 247.727C136.879 247.727 141.136 245.045 144.318 239.682C147.5 234.318 149.076 226.273 149.045 215.545C149.045 208.485 148.318 202.606 146.864 197.909C145.439 193.212 143.409 189.682 140.773 187.318C138.167 184.955 135.091 183.773 131.545 183.773C126.242 183.773 122 186.424 118.818 191.727C115.636 197.03 114.03 204.97 114 215.545C114 222.697 114.712 228.667 116.136 233.455C117.591 238.212 119.636 241.788 122.273 244.182C124.909 246.545 128 247.727 131.545 247.727Z" fill="#FAFAFA"/>
<g clip-path="url(#clip0_4256_67896)">
<path fill-rule="evenodd" clip-rule="evenodd" d="M2.177 122.983L91.0497 88.5748L119.57 60.9233L37.6172 90.6144L2.177 122.983Z" fill="#573363"/>
<path fill-rule="evenodd" clip-rule="evenodd" d="M211.04 86.4885L251.301 59.2263L231.178 179.189C231.178 179.189 213.077 197.515 198.879 206L211.055 86.4885H211.04Z" fill="#724182"/>
<path fill-rule="evenodd" clip-rule="evenodd" d="M198.863 206C198.863 206 111.328 206.28 48.3786 200.037C48.3786 200.037 36.9176 118.188 38.3172 88.5904L211.04 86.4885C211.04 86.4885 203.544 173.538 198.863 206Z" fill="#8D4D9F"/>
<path fill-rule="evenodd" clip-rule="evenodd" d="M38.3171 88.5748L118.824 59.5533L251.285 59.2263L211.04 86.4885L38.3171 88.5748Z" fill="#C676E5"/>
<path fill-rule="evenodd" clip-rule="evenodd" d="M44.3972 87.6877C44.3972 87.6877 195.115 86.3955 211.024 84.0445C211.024 84.0445 243.789 63.991 247.879 60.1297C247.879 60.1297 146.986 60.0519 119.554 60.9238L44.3972 87.6877Z" fill="#724182"/>
<g style="mix-blend-mode:soft-light" opacity="0.58">
<path d="M119.57 60.9235L118.823 86.8L211.04 84.0442L247.895 60.1295C247.895 60.1295 159.862 59.351 119.57 60.9235Z" fill="#C676E5"/>
</g>
<path fill-rule="evenodd" clip-rule="evenodd" d="M18.6609 146.385L20.2782 147.755L190.139 154.341L186.998 152.629C186.998 152.629 68.9055 143.894 18.6764 146.385H18.6609Z" fill="#9F44BC"/>
<path fill-rule="evenodd" clip-rule="evenodd" d="M209.469 86.8L186.983 152.628C186.983 152.628 92.2938 145.762 18.6609 146.385L38.3171 88.5905L209.469 86.8156V86.8Z" fill="#B967D3"/>
<path fill-rule="evenodd" clip-rule="evenodd" d="M186.983 152.612L190.124 154.34L211.04 86.4885L209.469 86.7999L186.983 152.612Z" fill="#9F44BC"/>
<path fill-rule="evenodd" clip-rule="evenodd" d="M211.04 86.4885L234.101 146.384L258.625 126.378L273.6 117.16C273.6 117.16 259.869 73.7838 251.285 59.2263L211.024 86.4885H211.04Z" fill="#B967D3"/>
<path fill-rule="evenodd" clip-rule="evenodd" d="M211.04 86.4885L210.791 88.8707L231.458 147.194L234.086 146.384L211.04 86.4885Z" fill="#C676E5"/>
<path fill-rule="evenodd" clip-rule="evenodd" d="M251.285 59.2264C251.285 59.2264 259.558 34.0505 261.58 27.4179C263.601 20.7853 275 0 275 0C275 0 195.458 7.5045 183.359 9.21714C171.245 10.9298 139.584 6.24337 139.584 6.24337L118.823 59.5533L251.285 59.2108V59.2264Z" fill="#B967D3"/>
<path opacity="0.36" d="M81.4707 87.4856C81.4707 87.4856 117.673 97.5591 151.978 101.42C186.283 105.266 204.353 87.112 204.353 87.112L201.461 84.761L81.4707 87.5012V87.4856Z" fill="#791B40"/>
<path fill-rule="evenodd" clip-rule="evenodd" d="M275 0V3.28516C275 3.28516 265.996 17.6714 262.559 27.2778C259.123 36.8841 251.285 59.2264 251.285 59.2264H250.119C250.119 59.2264 260.662 29.0683 262.808 23.6501C266.96 13.1718 275 0 275 0V0Z" fill="url(#paint0_radial_4256_67896)"/>
<path fill-rule="evenodd" clip-rule="evenodd" d="M38.3171 88.5742L0 120.414L2.17711 122.983L37.6173 90.6138L38.3171 88.5742Z" fill="#C676E5"/>
<path style="mix-blend-mode:multiply" opacity="0.5" fill-rule="evenodd" clip-rule="evenodd" d="M48.3784 200.021C48.3784 200.021 97.0368 199.087 134.499 200.021C171.945 200.956 198.863 205.985 198.863 205.985C198.863 205.985 93.0869 206.576 48.3784 200.021Z" fill="url(#paint1_linear_4256_67896)"/>
<path opacity="0.36" d="M42.7179 154.34L203.42 167.201L210.791 88.8707L211.04 86.4885L190.124 154.34L42.0803 148.595L42.7179 154.34Z" fill="#573363"/>
<path style="mix-blend-mode:multiply" opacity="0.68" fill-rule="evenodd" clip-rule="evenodd" d="M254.333 129.865L231.629 115.603L216.607 100.968L234.086 146.384L254.333 129.865Z" fill="url(#paint2_linear_4256_67896)"/>
<path style="mix-blend-mode:multiply" opacity="0.5" fill-rule="evenodd" clip-rule="evenodd" d="M178.072 9.57528L131.715 25.5184L139.584 6.24341C139.584 6.24341 168.384 10.4939 178.072 9.57528Z" fill="url(#paint3_linear_4256_67896)"/>
<path fill-rule="evenodd" clip-rule="evenodd" d="M186.143 68.3494C186.143 68.6919 186.096 69.05 186.019 69.4393C185.117 73.7987 179.223 81.4278 167.98 85.6627C155.71 90.2868 139.631 91.8749 136.598 92.1552C133.566 92.451 124.5 90.6916 116.071 86.8148C109.415 83.7476 105.357 80.4469 103.148 77.0528C101.578 74.6551 100.925 72.2262 100.925 69.7818C100.925 64.4415 103.148 60.5335 104.144 57.2172C105.17 53.9009 107.269 38.1757 112.743 30.0952C116.507 24.5369 124.142 19.5702 132.073 16.9856C132.12 16.9545 132.151 16.9389 132.182 16.9389C135.758 15.7868 139.397 15.1173 142.741 15.0862C152.833 15.0083 168.975 24.459 174.744 37.1637C179.876 48.4516 186.127 64.3013 186.127 68.3338L186.143 68.3494Z" fill="#EAEAEF"/>
<path fill-rule="evenodd" clip-rule="evenodd" d="M158.494 20.178C158.494 20.178 159.644 16.9395 164.076 13.5454C169.752 9.21704 178.305 7.00618 180.513 7.58225C182.722 8.15832 186.143 30.7808 176.517 41.1501C176.517 41.1501 159.924 31.4347 158.494 20.178Z" fill="#EAEAEF"/>
<path fill-rule="evenodd" clip-rule="evenodd" d="M132.213 16.9396C132.213 16.9396 120.114 2.67789 114.78 2.13296C109.446 1.58803 112.759 30.0958 112.759 30.0958C112.759 30.0958 122.556 19.9133 132.213 16.9396Z" fill="#EAEAEF"/>
<path fill-rule="evenodd" clip-rule="evenodd" d="M181.353 20.4272C180.28 33.3343 170.748 37.1177 170.748 37.1177C162.537 33.2253 158.509 20.1937 158.509 20.1937C158.556 20.1002 158.602 20.0068 158.649 19.929C165.74 7.11529 180.389 9.24831 180.389 9.24831C181.4 13.5766 181.633 17.2822 181.369 20.4272H181.353Z" fill="url(#paint4_linear_4256_67896)"/>
<g style="mix-blend-mode:multiply" opacity="0.5">
<path fill-rule="evenodd" clip-rule="evenodd" d="M141.916 65.6093C139.957 62.3709 140.921 42.224 152.708 37.1016C162.754 32.7421 172.116 52.095 169.985 62.5733C167.87 73.036 147.141 74.2815 141.916 65.6093Z" fill="#8D81B1"/>
</g>
<path fill-rule="evenodd" clip-rule="evenodd" d="M128.248 18.5438C128.248 18.5438 120.161 4.23541 113.35 2.88086C113.35 2.88086 109.867 6.4307 112.743 30.0963C112.743 30.0963 120.519 22.2805 128.232 18.5282L128.248 18.5438Z" fill="url(#paint5_linear_4256_67896)"/>
<path fill-rule="evenodd" clip-rule="evenodd" d="M143.55 66.1852C147.126 72.849 164.839 70.2333 168.011 63.3049C171.183 56.3764 167.125 41.1183 157.468 41.1495C148.199 41.1806 137.858 55.5668 143.55 66.1852Z" fill="url(#paint6_linear_4256_67896)"/>
<path fill-rule="evenodd" clip-rule="evenodd" d="M122.058 62.0606C121.607 64.3493 120.876 66.0775 119.943 66.7626C116.444 69.3627 110.022 69.5028 108.886 60.9863C107.736 52.4698 113.07 38.0991 117.097 41.1507C119.041 42.6298 120.394 44.9964 121.28 47.7055C122.789 52.3608 122.867 58.0592 122.058 62.0606Z" fill="url(#paint7_linear_4256_67896)"/>
<path fill-rule="evenodd" clip-rule="evenodd" d="M186.019 69.4395C185.117 73.7989 179.223 81.428 167.98 85.6629C155.71 90.287 139.631 91.8751 136.598 92.1554C133.566 92.4512 124.5 90.6918 116.071 86.815C109.416 83.7478 105.357 80.4471 103.149 77.053C103.149 77.053 108.016 72.5378 114.579 70.8096L112.526 72.7713C113.086 72.3821 118.015 69.0814 124.764 69.3928C131.949 69.7197 145.525 74.7642 158.494 74.5463C158.494 74.5463 155.337 74.7487 152.631 73.2073C152.631 73.2073 175.538 74.3594 186.003 69.4239L186.019 69.4395Z" fill="#D2C8E9"/>
<path fill-rule="evenodd" clip-rule="evenodd" d="M166.253 56.8443C166.253 62.0601 162.039 66.2794 156.83 66.2794C151.62 66.2794 147.406 62.0601 147.406 56.8443C147.406 51.6285 151.62 47.4092 156.83 47.4092C162.039 47.4092 166.253 51.6285 166.253 56.8443Z" fill="url(#paint8_linear_4256_67896)"/>
<path fill-rule="evenodd" clip-rule="evenodd" d="M122.058 62.06C121.265 63.8972 120.145 65.0494 118.886 65.0494C116.475 65.0494 114.531 60.8145 114.531 55.5987C114.531 50.3829 116.475 46.1636 118.886 46.1636C119.772 46.1636 120.596 46.7241 121.281 47.705C122.789 52.3602 122.867 58.0587 122.058 62.06Z" fill="url(#paint9_linear_4256_67896)"/>
<path fill-rule="evenodd" clip-rule="evenodd" d="M142.398 55.5992C142.398 55.5992 144.373 45.6036 153.191 43.1592C162.055 40.7148 166.191 45.6192 168.166 51.5045C168.166 51.5045 167.031 41.1508 158.493 40.7304C149.676 40.2944 143.347 49.9164 142.398 55.5992Z" fill="#593866"/>
<path fill-rule="evenodd" clip-rule="evenodd" d="M122.571 56.3771C122.571 56.3771 121.809 40.4495 115.651 39.6399C110.768 38.986 108.886 55.6142 108.886 55.6142C108.886 55.6142 111.095 40.8387 115.651 41.1657C121.141 41.5705 122.587 56.3927 122.587 56.3927L122.571 56.3771Z" fill="#593866"/>
<path fill-rule="evenodd" clip-rule="evenodd" d="M144.436 67.3853C144.436 67.3853 153.237 73.5975 166.269 65.6104C166.269 65.6104 162.521 69.6429 154.964 70.6549C147.406 71.6669 144.436 67.3697 144.436 67.3697V67.3853Z" fill="#A45C86"/>
<path fill-rule="evenodd" clip-rule="evenodd" d="M109.493 63.6792C109.493 63.6792 110.97 66.762 114.531 67.4782C118.093 68.1944 119.648 66.9488 119.648 66.9488C119.648 66.9488 118.248 69.0818 114.205 68.2099C110.162 67.338 109.493 63.6792 109.493 63.6792Z" fill="#A45C86"/>
<path fill-rule="evenodd" clip-rule="evenodd" d="M122.571 77.2718C122.571 77.2718 124.017 78.7198 125.168 78.424C126.319 78.1282 127.765 76.6958 129.973 77.2718C132.182 77.8479 133.146 79.0779 136.318 78.4707C139.49 77.8635 140.937 75.9329 140.937 75.9329C140.937 75.9329 139.584 79.109 135.743 79.8719C135.743 79.8719 131.28 77.6922 128.636 77.8946C125.992 78.097 124.919 79.218 124.919 79.218C124.919 79.218 122.96 79.0935 122.587 77.2718H122.571Z" fill="#514C59"/>
<path fill-rule="evenodd" clip-rule="evenodd" d="M102.666 86.7849C102.666 86.7849 100.753 87.8436 99.0118 86.7849C99.0118 86.7849 88.9815 90.506 84.5962 87.252C84.5962 87.252 81.0351 88.1239 79.9776 86.7849C79.9776 86.7849 79.5888 81.6937 83.0411 79.4361C86.4934 77.1474 96.1193 76.5713 98.8096 77.4432C101.469 78.3462 102.635 86.7849 102.635 86.7849H102.666Z" fill="#EAEAEF"/>
<path fill-rule="evenodd" clip-rule="evenodd" d="M197.635 87.1581C197.635 87.1581 196.189 88.4971 194.369 87.9365C194.369 87.9365 188.32 92.187 180.824 88.5749C180.824 88.5749 177.792 89.2444 175.677 86.8311C175.677 86.8311 178.15 80.868 180.498 79.4356L180.529 79.4045C183.795 77.4271 191.492 78.0032 194.462 79.4045C194.851 79.5913 195.209 79.856 195.504 80.1985C197.495 82.3627 197.635 87.1425 197.635 87.1425V87.1581Z" fill="#EAEAEF"/>
<g style="mix-blend-mode:multiply" opacity="0.5">
<path fill-rule="evenodd" clip-rule="evenodd" d="M112.044 7.48943C112.044 7.48943 125.153 9.4979 126.895 19.2288L128.263 18.5438C128.263 18.5438 122.136 5.29413 113.365 2.88086C113.365 2.88086 111.997 4.12642 112.044 7.48943Z" fill="#AE5188"/>
</g>
<path fill-rule="evenodd" clip-rule="evenodd" d="M123.955 70.0158L124.764 69.3931C124.764 69.3931 130.471 70.5296 133.612 69.3931L135.245 70.0158L133.846 71.7596C133.846 71.7596 130.658 72.1333 130.176 74.5621H127.905C127.905 74.5621 125.044 73.2387 123.94 70.0158H123.955Z" fill="url(#paint10_linear_4256_67896)"/>
<path fill-rule="evenodd" clip-rule="evenodd" d="M124.764 69.3925C124.764 69.3925 129.46 68.0535 133.612 69.3925C133.612 69.3925 127.656 70.8093 124.764 69.3925Z" fill="white"/>
<path fill-rule="evenodd" clip-rule="evenodd" d="M126.272 19.3373C126.272 19.3373 121.949 16.9552 114.547 17.0019L121.996 19.3373C121.996 19.3373 115.278 17.7648 108.731 20.6763L114.08 21.2057C114.08 21.2057 110.519 28.103 110.379 34.502C110.379 34.502 116.071 25.534 126.288 19.3218L126.272 19.3373Z" fill="#D2C8E9"/>
<g style="mix-blend-mode:multiply" opacity="0.5">
<path fill-rule="evenodd" clip-rule="evenodd" d="M138.433 82.8142L130.938 84.0909C127.703 82.8142 124.904 79.2176 124.904 79.2176C124.904 79.2176 121.887 77.1625 121.98 74.5779C122.074 71.9778 123.955 70.0316 123.955 70.0316C123.955 70.0316 123.955 69.7981 123.986 69.4089C124.328 69.222 128.978 67.4315 135.976 68.2878C140.299 68.8172 133.068 58.8683 124.764 58.121C124.655 54.2753 121.607 43.7036 121.047 40.7454C119.414 32.1822 117.268 27.9006 117.268 27.9006C120.052 22.1243 130.113 17.796 131.917 17.0642C124.049 19.6332 116.475 24.5687 112.743 30.1114C107.269 38.192 105.17 53.9172 104.144 57.2335C103.133 60.5498 100.925 64.4733 100.925 69.7981C100.925 72.2425 101.578 74.6713 103.148 77.069C105.357 80.4632 109.415 83.7795 116.071 86.8311C124.5 90.7079 133.566 92.4517 136.598 92.1715C139.63 91.8912 155.71 90.3031 167.98 85.679C179.207 81.4441 185.116 73.815 186.018 69.4556C172.303 90.054 138.433 82.8142 138.433 82.8142ZM109.509 81.4908C106.989 81.2884 100.862 73.3012 105.839 68.2256C107.254 66.7776 116.491 68.9418 118.559 72.694C120.627 76.4463 112.028 81.6932 109.509 81.4908Z" fill="#8D81B1"/>
</g>
<g style="mix-blend-mode:soft-light">
<path fill-rule="evenodd" clip-rule="evenodd" d="M154.062 44.0301L155.274 51.0987L166.673 53.6365V49.2926C166.673 49.2926 164.589 43.5942 154.062 44.0301Z" fill="white"/>
</g>
<path fill-rule="evenodd" clip-rule="evenodd" d="M151.993 64.0061C151.993 64.7223 151.418 65.2984 150.703 65.2984C149.987 65.2984 149.412 64.7223 149.412 64.0061C149.412 63.2899 149.987 62.7139 150.703 62.7139C151.418 62.7139 151.993 63.2899 151.993 64.0061Z" fill="white"/>
<path fill-rule="evenodd" clip-rule="evenodd" d="M170.732 37.1175C170.732 37.1175 175.086 31.637 175.335 20.427L170.732 37.1175Z" fill="#D2C8E9"/>
<path fill-rule="evenodd" clip-rule="evenodd" d="M128.248 18.5427C128.248 18.5427 123.318 11.4741 118.544 11.9879L128.248 18.5427Z" fill="#D2C8E9"/>
<path fill-rule="evenodd" clip-rule="evenodd" d="M162.257 71.9784C162.257 71.9784 177.512 73.5198 182.955 66.062C182.955 66.062 172.629 71.6203 162.257 71.9784Z" fill="#D2C8E9"/>
<path fill-rule="evenodd" clip-rule="evenodd" d="M129.196 70.0477C129.196 70.0477 132.944 70.577 135.261 70.0165L133.815 69.3782C133.815 69.3782 132.322 69.8297 129.196 70.0477Z" fill="white"/>
<g style="mix-blend-mode:multiply" opacity="0.5">
<path fill-rule="evenodd" clip-rule="evenodd" d="M102.666 86.7844C102.666 86.7844 100.753 87.8431 99.0118 86.7844C99.0118 86.7844 88.9815 90.5055 84.5962 87.2515C84.5962 87.2515 81.0351 88.1234 79.9776 86.7844C79.9776 86.7844 79.5888 81.6932 83.0411 79.4356C82.9012 79.638 81.626 81.4596 81.9681 82.1291C82.3258 82.8453 96.2282 84.1998 98.8252 82.8142C101.313 81.4907 99.0273 77.7696 98.8252 77.4583C101.484 78.3457 102.651 86.7844 102.651 86.7844H102.666Z" fill="#8D81B1"/>
</g>
<g style="mix-blend-mode:multiply" opacity="0.5">
<path fill-rule="evenodd" clip-rule="evenodd" d="M197.635 87.1585C197.635 87.1585 196.188 88.4975 194.369 87.937C194.369 87.937 188.32 92.1875 180.824 88.5753C180.824 88.5753 177.792 89.2448 175.677 86.8315C175.677 86.8315 178.15 80.8684 180.498 79.436C180.327 79.7163 179.347 81.3044 180.529 81.9116C181.82 82.5499 190.777 82.9859 193.794 81.9116C194.898 81.5223 195.364 80.8529 195.504 80.1989C197.495 82.3631 197.635 87.1429 197.635 87.1429V87.1585Z" fill="#8D81B1"/>
</g>
<g style="mix-blend-mode:multiply" opacity="0.5">
<path fill-rule="evenodd" clip-rule="evenodd" d="M181.353 20.4272C181.353 20.4272 181.104 13.094 175.335 13.203C169.566 13.3119 165.103 18.5433 165.103 18.5433L160.375 21.3458L158.633 19.929C165.725 7.11528 180.373 9.24831 180.373 9.24831C181.384 13.5766 181.617 17.2822 181.353 20.4272Z" fill="#AE5188"/>
</g>
<path fill-rule="evenodd" clip-rule="evenodd" d="M170.732 37.1177C170.732 37.1177 171.338 31.2635 169.053 23.65V26.5304C169.053 26.5304 166.969 18.0606 160.422 14.3083L161.868 18.154C161.868 18.154 158.696 15.6629 149.567 16.4725C149.567 16.4725 156.472 18.4343 158.494 21.9997C160.515 25.5651 161.604 34.2996 170.732 37.1021V37.1177Z" fill="#D2C8E9"/>
<g style="mix-blend-mode:multiply" opacity="0.5">
<path fill-rule="evenodd" clip-rule="evenodd" d="M138.433 82.8136C138.433 82.8136 133.239 86.6904 131.746 86.6904C130.253 86.6904 124.904 79.217 124.904 79.217C124.904 79.217 128.294 83.125 130.938 84.0903L138.433 82.8136Z" fill="#8D81B1"/>
</g>
<path d="M54.5677 194.634H62.8407L62.2654 184.514H53.6658L54.5677 194.634Z" fill="#573363"/>
<path d="M71.3936 186.071V193.077H66.1686L65.8264 186.071H71.3936ZM72.9487 184.514H64.1936L64.6912 194.634H72.9487V184.514Z" fill="#573363"/>
<path opacity="0.5" fill-rule="evenodd" clip-rule="evenodd" d="M156.767 197.297L156.892 184.81H190.124V199.507L156.767 197.297Z" fill="#FFFFCE"/>
<g style="mix-blend-mode:multiply" opacity="0.5">
<path fill-rule="evenodd" clip-rule="evenodd" d="M161.651 187.457V189.575L185.832 190.26V187.457H161.651Z" fill="#573363"/>
</g>
<g style="mix-blend-mode:multiply" opacity="0.5">
<g style="mix-blend-mode:multiply">
<path fill-rule="evenodd" clip-rule="evenodd" d="M53.9926 168.93C54.1948 170.051 54.7702 170.643 56.0764 170.393C56.9162 170.222 57.4138 169.49 57.2583 168.603C57.1028 167.7 56.1853 166.953 55.2678 167.077C54.3192 167.202 53.8371 168.416 53.9926 168.93Z" fill="#E3D9D2"/>
</g>
<g style="mix-blend-mode:multiply">
<path fill-rule="evenodd" clip-rule="evenodd" d="M85.6384 181.555C85.7473 180.31 87.0536 179.625 88.1577 179.5C89.0907 179.407 89.9305 179.656 90.7391 180.17C91.5166 180.668 92.1387 181.54 91.7499 182.49C91.6255 182.801 91.2367 183.486 90.9724 183.704C90.568 184.031 89.7439 183.813 89.2773 183.735C88.4376 183.595 88.1266 183.315 87.5356 182.77C87.0069 182.287 85.6073 182.676 85.6384 181.571V181.555Z" fill="#E3D9D2"/>
</g>
<g style="mix-blend-mode:multiply">
<path fill-rule="evenodd" clip-rule="evenodd" d="M54.8324 164.103C54.1015 164.399 53.0596 165.536 54.1171 166.003C54.6925 166.252 56.4808 165.925 56.9629 165.551C58.9378 164.041 55.8121 162.733 54.5214 164.337L54.8324 164.103Z" fill="#E3D9D2"/>
</g>
<g style="mix-blend-mode:multiply">
<path fill-rule="evenodd" clip-rule="evenodd" d="M55.7807 173.772C56.4961 172.511 57.8024 173.943 56.9471 174.675C56.3717 175.158 55.703 174.675 55.6252 174.052L55.7652 173.772H55.7807Z" fill="#E3D9D2"/>
</g>
<g style="mix-blend-mode:multiply">
<path fill-rule="evenodd" clip-rule="evenodd" d="M57.7251 168.977C58.2071 168.136 59.078 169.101 58.5026 169.584C58.1138 169.911 57.6784 169.584 57.6162 169.163L57.7095 168.977H57.7251Z" fill="#E3D9D2"/>
</g>
<g style="mix-blend-mode:multiply">
<path fill-rule="evenodd" clip-rule="evenodd" d="M156.503 171.607C154.964 173.693 157.794 176.122 158.914 173.616C159.505 172.277 158.354 170.626 157.047 171.607H156.519H156.503Z" fill="#E3D9D2"/>
</g>
<g style="mix-blend-mode:multiply">
<path fill-rule="evenodd" clip-rule="evenodd" d="M161.168 177.617C160.966 177.212 160.764 177.321 160.546 177.57C160.173 177.991 160.422 178.084 160.686 178.411C161.262 179.127 161.775 179.112 162.552 178.613C163.19 178.209 164.247 177.088 163.097 176.527C162.615 176.294 161.588 176.636 161.293 177.01L161.153 177.617H161.168Z" fill="#E3D9D2"/>
</g>
<g style="mix-blend-mode:multiply">
<path fill-rule="evenodd" clip-rule="evenodd" d="M158.634 178.426C158.525 177.399 160.049 178.722 159.38 179.283C158.82 179.75 158.463 178.769 158.634 178.364V178.426Z" fill="#E3D9D2"/>
</g>
<g style="mix-blend-mode:multiply">
<path fill-rule="evenodd" clip-rule="evenodd" d="M161.713 174.876C162.133 175.561 163.004 174.596 162.708 174.16C162.335 173.631 161.806 174.487 161.651 174.752L161.713 174.892V174.876Z" fill="#E3D9D2"/>
</g>
<g style="mix-blend-mode:multiply">
<path fill-rule="evenodd" clip-rule="evenodd" d="M145.431 187.052C145.68 186.211 146.722 186.99 146.846 187.535C147.017 188.298 146.364 189.279 145.555 189.356C144.311 189.481 143.985 187.55 145.089 187.114L145.415 187.052H145.431Z" fill="#E3D9D2"/>
</g>
<g style="mix-blend-mode:multiply">
<path fill-rule="evenodd" clip-rule="evenodd" d="M156.97 188.577C156.239 189.652 158.727 189.87 158.711 188.655C158.696 187.69 157.265 187.69 156.97 188.499V188.562V188.577Z" fill="#E3D9D2"/>
</g>
<g style="mix-blend-mode:multiply">
<path fill-rule="evenodd" clip-rule="evenodd" d="M146.628 167.606C146.131 166.952 146.799 165.955 147.577 166.08C148.588 166.22 148.603 167.621 148.261 168.322C147.515 169.848 145.431 168.805 146.286 167.341L146.613 167.606H146.628Z" fill="#E3D9D2"/>
</g>
<g style="mix-blend-mode:multiply">
<path fill-rule="evenodd" clip-rule="evenodd" d="M161.448 164.321C160.562 166.422 163.999 165.691 164.185 163.994C164.419 161.954 161.697 162.483 161.448 164.321Z" fill="#E3D9D2"/>
</g>
<g style="mix-blend-mode:multiply">
<path fill-rule="evenodd" clip-rule="evenodd" d="M91.5318 178.552C90.4899 179.968 93.2113 180.669 93.429 178.879C92.8847 178.178 91.8895 178.022 91.2363 178.707L91.5318 178.552Z" fill="#E3D9D2"/>
</g>
<g style="mix-blend-mode:multiply">
<path fill-rule="evenodd" clip-rule="evenodd" d="M77.3495 195.708C79.6355 192.781 84.0519 191.645 87.1776 193.793C88.0018 194.354 89.1681 195.381 88.1884 196.3C87.3331 197.094 83.2433 196.3 82.1081 196.3C80.4597 196.3 78.7647 196.362 77.334 195.708H77.3495Z" fill="#E3D9D2"/>
</g>
<g style="mix-blend-mode:multiply">
<path fill-rule="evenodd" clip-rule="evenodd" d="M69.3721 194.229C69.5587 195.537 71.8602 195.086 71.5181 193.996C71.3004 193.28 70.0408 193.093 69.8075 193.778L69.3566 194.214L69.3721 194.229Z" fill="#E3D9D2"/>
</g>
<g style="mix-blend-mode:multiply">
<path fill-rule="evenodd" clip-rule="evenodd" d="M98.7786 194.665C99.1673 192.579 101.438 195.786 99.2451 195.521C99.1984 195.35 99.1362 195.257 99.074 195.101L98.7786 194.649V194.665Z" fill="#E3D9D2"/>
</g>
<g style="mix-blend-mode:multiply">
<path fill-rule="evenodd" clip-rule="evenodd" d="M108.047 166.127C107.642 168.027 110.068 167.653 110.053 166.127C110.053 164.85 108.389 164.414 108.047 165.738V166.143V166.127Z" fill="#E3D9D2"/>
</g>
<g style="mix-blend-mode:multiply">
<path fill-rule="evenodd" clip-rule="evenodd" d="M158.914 196.394C159.116 196.082 159.38 195.88 159.707 195.786C160.951 197.437 158.183 198.558 158.914 196.596V196.394Z" fill="#E3D9D2"/>
</g>
<g style="mix-blend-mode:multiply">
<path fill-rule="evenodd" clip-rule="evenodd" d="M227.275 22.84C225.735 24.7239 228.566 26.9192 229.685 24.6461C230.276 23.4316 229.125 21.9525 227.819 22.84H227.29H227.275Z" fill="#E3D9D2"/>
</g>
<g style="mix-blend-mode:multiply">
<path fill-rule="evenodd" clip-rule="evenodd" d="M231.94 28.2743C231.738 27.9162 231.536 28.0096 231.318 28.2431C230.945 28.6324 231.194 28.7102 231.458 29.006C232.033 29.66 232.546 29.6444 233.324 29.1773C233.962 28.8192 235.019 27.8072 233.868 27.2934C233.386 27.0754 232.36 27.3868 232.064 27.7293L231.924 28.2743H231.94Z" fill="#E3D9D2"/>
</g>
<g style="mix-blend-mode:multiply">
<path fill-rule="evenodd" clip-rule="evenodd" d="M229.405 28.9912C229.296 28.0571 230.82 29.2559 230.151 29.7697C229.592 30.1901 229.234 29.3026 229.405 28.9445V29.0068V28.9912Z" fill="#E3D9D2"/>
</g>
<g style="mix-blend-mode:multiply">
<path fill-rule="evenodd" clip-rule="evenodd" d="M232.469 25.7988C232.889 26.406 233.759 25.5497 233.464 25.1449C233.091 24.6622 232.562 25.4407 232.406 25.6742L232.469 25.7988Z" fill="#E3D9D2"/>
</g>
<g style="mix-blend-mode:multiply">
<path fill-rule="evenodd" clip-rule="evenodd" d="M216.187 36.7751C216.436 36.0122 217.478 36.7129 217.602 37.2111C217.773 37.8961 217.12 38.7836 216.311 38.8614C215.067 38.9704 214.741 37.2266 215.845 36.8374L216.172 36.7751H216.187Z" fill="#E3D9D2"/>
</g>
<g style="mix-blend-mode:multiply">
<path fill-rule="evenodd" clip-rule="evenodd" d="M227.741 38.1609C227.01 39.1262 229.499 39.3286 229.483 38.2387C229.467 37.3669 228.037 37.3669 227.741 38.0986V38.1609Z" fill="#E3D9D2"/>
</g>
<g style="mix-blend-mode:multiply">
<path fill-rule="evenodd" clip-rule="evenodd" d="M217.385 19.2123C216.887 18.6207 217.556 17.7332 218.333 17.8266C219.344 17.9668 219.36 19.2279 219.018 19.8507C218.271 21.2208 216.187 20.2866 217.043 18.9632L217.369 19.2123H217.385Z" fill="#E3D9D2"/>
</g>
<g style="mix-blend-mode:multiply">
<path fill-rule="evenodd" clip-rule="evenodd" d="M232.204 16.2546C231.318 18.1541 234.755 17.4846 234.941 15.9588C235.175 14.106 232.453 14.5887 232.204 16.2546Z" fill="#E3D9D2"/>
</g>
<g style="mix-blend-mode:multiply">
<path fill-rule="evenodd" clip-rule="evenodd" d="M229.67 45.2295C229.872 44.9492 230.136 44.7624 230.463 44.6846C231.707 46.1792 228.939 47.1913 229.67 45.4163V45.2295Z" fill="#E3D9D2"/>
</g>
<g style="mix-blend-mode:multiply">
<path fill-rule="evenodd" clip-rule="evenodd" d="M43.4023 126.191C40.3544 133.976 53.1838 128.557 55.0343 124.961C56.9626 121.224 52.0641 120.617 49.3116 121.115C46.046 121.707 43.5112 124.058 43.4023 126.206V126.191Z" fill="#E3D9D2"/>
</g>
<g style="mix-blend-mode:multiply">
<path fill-rule="evenodd" clip-rule="evenodd" d="M55.4231 128.059C55.7341 126.331 58.9687 124.821 58.5799 127.452C58.3622 128.931 56.2784 129.896 55.703 128.324L55.4386 128.059H55.4231Z" fill="#E3D9D2"/>
</g>
<g style="mix-blend-mode:multiply">
<path fill-rule="evenodd" clip-rule="evenodd" d="M120.301 116.039C117.206 120.352 130.145 120.414 130.751 116.102C131.373 111.68 121.467 113.19 120.037 115.775L120.301 116.039Z" fill="#E3D9D2"/>
</g>
<g style="mix-blend-mode:multiply">
<path fill-rule="evenodd" clip-rule="evenodd" d="M129.383 110.964C129.647 108.286 133.348 109.454 132.57 111.073C131.933 112.396 130.051 111.446 129.383 110.699V110.964Z" fill="#E3D9D2"/>
</g>
<g style="mix-blend-mode:multiply">
<path fill-rule="evenodd" clip-rule="evenodd" d="M139.257 114.172C140.486 114.141 141.621 113.876 142.694 113.346C142.398 110.933 139.413 111.494 138.697 113.362C138.806 113.751 139.055 113.673 139.257 113.891V114.156V114.172Z" fill="#E3D9D2"/>
</g>
<g style="mix-blend-mode:multiply">
<path fill-rule="evenodd" clip-rule="evenodd" d="M105.341 119.247C105.326 118.235 105.605 117.721 106.616 117.69C107.876 118.718 107.549 120.742 105.87 120.321L105.341 119.247Z" fill="#E3D9D2"/>
</g>
<g style="mix-blend-mode:multiply">
<path fill-rule="evenodd" clip-rule="evenodd" d="M73.3998 179.189C70.1653 181.93 77.132 181.105 73.9908 179.579L73.3998 179.189Z" fill="#E3D9D2"/>
</g>
<g style="mix-blend-mode:multiply">
<path fill-rule="evenodd" clip-rule="evenodd" d="M59.6062 186.538C58.8131 187.347 59.1086 189.044 60.5392 188.437C61.6278 187.97 61.379 186.071 60.0572 186.678L59.6217 186.522L59.6062 186.538Z" fill="#E3D9D2"/>
</g>
<g style="mix-blend-mode:multiply">
<path fill-rule="evenodd" clip-rule="evenodd" d="M66.1219 190.976C66.3863 190.073 67.5215 190.057 67.4593 190.976C67.4127 191.739 66.6507 191.661 66.4174 191.132L66.1219 190.976Z" fill="#E3D9D2"/>
</g>
<g style="mix-blend-mode:multiply">
<path fill-rule="evenodd" clip-rule="evenodd" d="M124.267 165.131C124.718 164.866 125.091 164.508 125.355 164.072C124.624 163.449 124.593 163.932 124.267 164.523V165.131Z" fill="#E3D9D2"/>
</g>
</g>
<path opacity="0.56" fill-rule="evenodd" clip-rule="evenodd" d="M154.637 182.802H159.551L159.395 199.617H154.637V182.802Z" fill="#573363"/>
<path opacity="0.56" fill-rule="evenodd" clip-rule="evenodd" d="M189.144 182.802L187.402 201.08H191.726L193.358 182.802H189.144Z" fill="#573363"/>
<path style="mix-blend-mode:multiply" opacity="0.5" fill-rule="evenodd" clip-rule="evenodd" d="M264.177 20.4272L219.219 5.38705L275 0L264.177 20.4272Z" fill="url(#paint11_linear_4256_67896)"/>
</g>
<path d="M6.63636 245.636V230.136L45.5 168.909H58.8636V190.364H50.9545L26.4545 229.136V229.864H81.6818V245.636H6.63636ZM51.3182 262V240.909L51.6818 234.045V168.909H70.1364V262H51.3182Z" fill="#FAFAFA"/>
<path d="M181.636 245.636V230.136L220.5 168.909H233.864V190.364H225.955L201.455 229.136V229.864H256.682V245.636H181.636ZM226.318 262V240.909L226.682 234.045V168.909H245.136V262H226.318Z" fill="#FAFAFA"/>
<defs>
<radialGradient id="paint0_radial_4256_67896" cx="0" cy="0" r="1" gradientUnits="userSpaceOnUse" gradientTransform="translate(259.994 41.1035) scale(22.673 22.7003)">
<stop offset="0.02" stop-color="#BD4D4D"/>
<stop offset="1" stop-color="#9F3E54"/>
</radialGradient>
<linearGradient id="paint1_linear_4256_67896" x1="48.3784" y1="202.808" x2="198.863" y2="202.808" gradientUnits="userSpaceOnUse">
<stop stop-color="#D3B8D6"/>
<stop offset="1" stop-color="white"/>
</linearGradient>
<linearGradient id="paint2_linear_4256_67896" x1="216.607" y1="123.668" x2="254.333" y2="123.668" gradientUnits="userSpaceOnUse">
<stop stop-color="#D3B8D6"/>
<stop offset="1" stop-color="white"/>
</linearGradient>
<linearGradient id="paint3_linear_4256_67896" x1="131.715" y1="15.8809" x2="178.072" y2="15.8809" gradientUnits="userSpaceOnUse">
<stop stop-color="#D3B8D6"/>
<stop offset="1" stop-color="white"/>
</linearGradient>
<linearGradient id="paint4_linear_4256_67896" x1="169.97" y1="37.1177" x2="169.97" y2="9.10818" gradientUnits="userSpaceOnUse">
<stop stop-color="#FB9292"/>
<stop offset="1" stop-color="#BA6586"/>
</linearGradient>
<linearGradient id="paint5_linear_4256_67896" x1="119.943" y1="30.0963" x2="119.943" y2="2.88086" gradientUnits="userSpaceOnUse">
<stop stop-color="#FB9292"/>
<stop offset="1" stop-color="#BA6586"/>
</linearGradient>
<linearGradient id="paint6_linear_4256_67896" x1="155.493" y1="70.0464" x2="155.493" y2="41.1495" gradientUnits="userSpaceOnUse">
<stop offset="0.02" stop-color="#FFDE31"/>
<stop offset="0.97" stop-color="#FF784F"/>
</linearGradient>
<linearGradient id="paint7_linear_4256_67896" x1="115.635" y1="68.3351" x2="115.635" y2="40.7304" gradientUnits="userSpaceOnUse">
<stop offset="0.02" stop-color="#FFDE31"/>
<stop offset="0.97" stop-color="#FF784F"/>
</linearGradient>
<linearGradient id="paint8_linear_4256_67896" x1="156.83" y1="66.2794" x2="156.83" y2="47.4092" gradientUnits="userSpaceOnUse">
<stop offset="0.02" stop-color="#51657F"/>
<stop offset="0.53" stop-color="#4B3143"/>
<stop offset="0.98" stop-color="#412245"/>
</linearGradient>
<linearGradient id="paint9_linear_4256_67896" x1="118.544" y1="65.0338" x2="118.544" y2="46.1636" gradientUnits="userSpaceOnUse">
<stop offset="0.02" stop-color="#51657F"/>
<stop offset="0.53" stop-color="#4B3143"/>
<stop offset="0.98" stop-color="#412245"/>
</linearGradient>
<linearGradient id="paint10_linear_4256_67896" x1="129.6" y1="74.5621" x2="129.6" y2="69.3931" gradientUnits="userSpaceOnUse">
<stop stop-color="#BA6586"/>
<stop offset="0.99" stop-color="#FB9292"/>
</linearGradient>
<linearGradient id="paint11_linear_4256_67896" x1="219.219" y1="10.2136" x2="275" y2="10.2136" gradientUnits="userSpaceOnUse">
<stop stop-color="#D3B8D6"/>
<stop offset="1" stop-color="white"/>
</linearGradient>
<clipPath id="clip0_4256_67896">
<rect width="275" height="206" fill="white"/>
</clipPath>
</defs>
</svg>
