<svg width="10" height="11" viewBox="0 0 10 11" fill="none" xmlns="http://www.w3.org/2000/svg">
<path fill-rule="evenodd" clip-rule="evenodd" d="M7.76528 3.58333C7.76528 5.14814 6.48858 6.41667 4.9137 6.41667C3.33881 6.41667 2.06211 5.14814 2.06211 3.58333C2.06211 2.01853 3.33881 0.75 4.9137 0.75C6.48858 0.75 7.76528 2.01853 7.76528 3.58333ZM6.81475 3.58333C6.81475 4.62654 5.96362 5.47222 4.9137 5.47222C3.86377 5.47222 3.01264 4.62654 3.01264 3.58333C3.01264 2.54013 3.86377 1.69444 4.9137 1.69444C5.96362 1.69444 6.81475 2.54013 6.81475 3.58333Z" fill="white" fill-opacity="0.9"/>
<path d="M1.30033 9.48073C1.45629 9.14124 1.74277 8.73867 2.28137 8.41685C2.82284 8.09332 3.64962 7.83333 4.91372 7.83333C5.17621 7.83333 5.38899 7.62191 5.38899 7.36111C5.38899 7.10031 5.17621 6.88889 4.91372 6.88889C3.51876 6.88889 2.51299 7.17639 1.79151 7.60749C1.06716 8.0403 0.6603 8.59949 0.435625 9.08855C0.24624 9.50079 0.332436 9.92091 0.584056 10.2202C0.823906 10.5055 1.19684 10.6667 1.58687 10.6667H4.91369C5.17617 10.6667 5.38896 10.4552 5.38896 10.1944C5.38896 9.93364 5.17617 9.72222 4.91369 9.72222H1.58687C1.45192 9.72222 1.35642 9.66572 1.31357 9.61475C1.29361 9.59102 1.28668 9.57127 1.28456 9.55723C1.28271 9.54492 1.28191 9.52081 1.30033 9.48073Z" fill="white" fill-opacity="0.9"/>
<path d="M7.76528 6.88889C8.02776 6.88889 8.24054 7.10031 8.24054 7.36111V8.30552L9.19109 8.30554C9.45357 8.30555 9.66635 8.51698 9.66634 8.77778C9.66633 9.03858 9.45355 9.24999 9.19106 9.24999L8.24054 9.24996V10.1944C8.24054 10.4552 8.02776 10.6667 7.76528 10.6667C7.5028 10.6667 7.29002 10.4552 7.29002 10.1944V9.24994L6.33948 9.24992C6.077 9.24991 5.86422 9.03849 5.86423 8.77769C5.86423 8.51688 6.07702 8.30547 6.3395 8.30547L7.29002 8.3055V7.36111C7.29002 7.10031 7.5028 6.88889 7.76528 6.88889Z" fill="white" fill-opacity="0.9"/>
</svg>
