<svg width="11" height="12" viewBox="0 0 11 12" fill="none" xmlns="http://www.w3.org/2000/svg">
<path d="M5.98481 1.15184C5.98481 0.884066 5.76773 0.666992 5.49996 0.666992C5.23219 0.666992 5.01511 0.884066 5.01511 1.15184V5.51548H0.651475C0.3837 5.51548 0.166626 5.73255 0.166626 6.00033C0.166626 6.2681 0.3837 6.48517 0.651474 6.48517H5.01511V10.8488C5.01511 11.1166 5.23219 11.3337 5.49996 11.3337C5.76773 11.3337 5.98481 11.1166 5.98481 10.8488V6.48517H10.3484C10.6162 6.48517 10.8333 6.2681 10.8333 6.00033C10.8333 5.73255 10.6162 5.51548 10.3484 5.51548H5.98481V1.15184Z" fill="#D69E3C"/>
<path d="M3.90341 4.40377C3.71406 4.59312 3.40707 4.59312 3.21773 4.40377L1.76318 2.94923C1.57384 2.75988 1.57384 2.45289 1.76318 2.26355C1.95253 2.0742 2.25952 2.0742 2.44886 2.26355L3.90341 3.71809C4.09275 3.90744 4.09275 4.21443 3.90341 4.40377Z" fill="#D69E3C"/>
<path d="M9.23674 2.94923C9.42609 2.75988 9.42609 2.45289 9.23674 2.26355C9.0474 2.0742 8.74041 2.0742 8.55106 2.26355L7.09652 3.71809C6.90717 3.90743 6.90717 4.21442 7.09652 4.40377C7.28586 4.59311 7.59285 4.59311 7.7822 4.40377L9.23674 2.94923Z" fill="#D69E3C"/>
<path d="M3.90341 7.59688C4.09275 7.78623 4.09275 8.09322 3.90341 8.28256L2.44886 9.7371C2.25952 9.92645 1.95253 9.92645 1.76318 9.7371C1.57384 9.54776 1.57384 9.24077 1.76318 9.05142L3.21773 7.59688C3.40707 7.40754 3.71406 7.40754 3.90341 7.59688Z" fill="#D69E3C"/>
<path d="M8.55106 9.73711C8.74041 9.92645 9.04739 9.92645 9.23674 9.73711C9.42609 9.54776 9.42609 9.24077 9.23674 9.05143L7.7822 7.59688C7.59285 7.40754 7.28586 7.40753 7.09652 7.59688C6.90717 7.78622 6.90717 8.09321 7.09652 8.28256L8.55106 9.73711Z" fill="#D69E3C"/>
</svg>
