<svg width="18" height="16" viewBox="0 0 18 16" fill="none" xmlns="http://www.w3.org/2000/svg">
    <path d="M5.13636 9.90476C5.56313 9.90476 5.90909 9.56365 5.90909 9.14286C5.90909 8.72207 5.56313 8.38095 5.13636 8.38095C4.7096 8.38095 4.36364 8.72207 4.36364 9.14286C4.36364 9.56365 4.7096 9.90476 5.13636 9.90476Z" fill="currentColor" fill-opacity="0.9" />
    <path d="M9 9.14286C9 9.56365 8.65404 9.90476 8.22727 9.90476C7.80051 9.90476 7.45455 9.56365 7.45455 9.14286C7.45455 8.72207 7.80051 8.38095 8.22727 8.38095C8.65404 8.38095 9 8.72207 9 9.14286Z" fill="currentColor" fill-opacity="0.9" />
    <path d="M11.3182 9.90476C11.7449 9.90476 12.0909 9.56365 12.0909 9.14286C12.0909 8.72207 11.7449 8.38095 11.3182 8.38095C10.8914 8.38095 10.5455 8.72207 10.5455 9.14286C10.5455 9.56365 10.8914 9.90476 11.3182 9.90476Z" fill="currentColor" fill-opacity="0.9" />
    <path d="M5.90909 12.1905C5.90909 12.6113 5.56313 12.9524 5.13636 12.9524C4.7096 12.9524 4.36364 12.6113 4.36364 12.1905C4.36364 11.7697 4.7096 11.4286 5.13636 11.4286C5.56313 11.4286 5.90909 11.7697 5.90909 12.1905Z" fill="currentColor" fill-opacity="0.9" />
    <path d="M8.22727 12.9524C8.65404 12.9524 9 12.6113 9 12.1905C9 11.7697 8.65404 11.4286 8.22727 11.4286C7.80051 11.4286 7.45455 11.7697 7.45455 12.1905C7.45455 12.6113 7.80051 12.9524 8.22727 12.9524Z" fill="currentColor" fill-opacity="0.9" />
    <path fill-rule="evenodd" clip-rule="evenodd" d="M5.90909 0.761905C5.90909 0.341116 5.56313 0 5.13636 0C4.7096 0 4.36364 0.341116 4.36364 0.761905V1.52381H2.81818C1.53789 1.52381 0.5 2.54716 0.5 3.80952V13.7143C0.5 14.9767 1.53789 16 2.81818 16H15.1818C16.4621 16 17.5 14.9767 17.5 13.7143V3.80952C17.5 2.54716 16.4621 1.52381 15.1818 1.52381H13.6364V0.761905C13.6364 0.341116 13.2904 0 12.8636 0C12.4369 0 12.0909 0.341116 12.0909 0.761905V1.52381H5.90909V0.761905ZM2.04545 3.80952C2.04545 3.38874 2.39142 3.04762 2.81818 3.04762H15.1818C15.6086 3.04762 15.9545 3.38874 15.9545 3.80952V5.33333H2.04545V3.80952ZM2.04545 6.85714H15.9545V13.7143C15.9545 14.1351 15.6086 14.4762 15.1818 14.4762H2.81818C2.39142 14.4762 2.04545 14.1351 2.04545 13.7143V6.85714Z" fill="currentColor" fill-opacity="0.9" />
</svg>
    