<svg width="20" height="20" viewBox="0 0 20 20" fill="none" xmlns="http://www.w3.org/2000/svg">
<path d="M13.8047 8.4714C14.0651 8.21106 14.0651 7.78895 13.8047 7.5286C13.5444 7.26825 13.1223 7.26825 12.8619 7.5286L8.66667 11.7239L6.4714 9.5286C6.21106 9.26825 5.78894 9.26825 5.5286 9.5286C5.26825 9.78895 5.26825 10.2111 5.5286 10.4714L8.19526 13.1381C8.45561 13.3984 8.87772 13.3984 9.13807 13.1381L13.8047 8.4714Z" fill="currentColor" fill-opacity="1"/>
<path fill-rule="evenodd" clip-rule="evenodd" d="M18 10C18 14.4183 14.4183 18 10 18C5.58172 18 2 14.4183 2 10C2 5.58172 5.58172 2 10 2C14.4183 2 18 5.58172 18 10ZM16.6667 10C16.6667 13.6819 13.6819 16.6667 10 16.6667C6.3181 16.6667 3.33333 13.6819 3.33333 10C3.33333 6.3181 6.3181 3.33333 10 3.33333C13.6819 3.33333 16.6667 6.3181 16.6667 10Z" fill="currentColor" fill-opacity="1"/>
</svg>
