<svg width="10" height="10" viewBox="0 0 10 10" fill="none" xmlns="http://www.w3.org/2000/svg">
<path d="M1.78833 1.06612C1.589 0.866794 1.26582 0.866794 1.06649 1.06612C0.86716 1.26545 0.86716 1.58863 1.06649 1.78795L4.27853 4.99996L1.06649 8.21196C0.86716 8.41129 0.86716 8.73447 1.06649 8.93379C1.26582 9.13312 1.589 9.13312 1.78833 8.93379L5.00036 5.72179L8.21232 8.93372C8.41165 9.13305 8.73483 9.13305 8.93416 8.93372C9.13349 8.73439 9.13349 8.41122 8.93416 8.21189L5.7222 4.99996L8.93416 1.78803C9.13349 1.5887 9.13349 1.26553 8.93416 1.0662C8.73483 0.866871 8.41165 0.866871 8.21232 1.0662L5.00036 4.27813L1.78833 1.06612Z" fill="white" fill-opacity="0.9"/>
</svg>
