<svg width="17" height="12" viewBox="0 0 17 12" fill="none" xmlns="http://www.w3.org/2000/svg">
    <path fill-rule="evenodd" clip-rule="evenodd" d="M11.5185 5.99996C11.5185 7.78977 10.0676 9.2407 8.27778 9.2407C6.48797 9.2407 5.03704 7.78977 5.03704 5.99996C5.03704 4.21015 6.48797 2.75922 8.27778 2.75922C10.0676 2.75922 11.5185 4.21015 11.5185 5.99996ZM10.2222 5.99996C10.2222 7.07385 9.35166 7.9444 8.27778 7.9444C7.20389 7.9444 6.33333 7.07385 6.33333 5.99996C6.33333 4.92607 7.20389 4.05551 8.27778 4.05551C9.35166 4.05551 10.2222 4.92607 10.2222 5.99996Z" fill="currentColor" fill-opacity="0.72" />
    <path fill-rule="evenodd" clip-rule="evenodd" d="M16.0556 5.99996C16.0556 7.62033 12.5733 11.8333 8.27778 11.8333C3.98223 11.8333 0.5 7.9444 0.5 5.99996C0.5 4.05551 3.98223 0.166626 8.27778 0.166626C12.5733 0.166626 16.0556 4.37959 16.0556 5.99996ZM14.759 5.99926L14.759 5.99996L14.759 6.00065C14.7574 6.01347 14.7477 6.09388 14.6871 6.25183C14.6204 6.42583 14.5102 6.64663 14.3485 6.90253C14.0248 7.4148 13.5361 8.00237 12.9145 8.557C11.6552 9.68051 10.0051 10.537 8.27778 10.537C6.51946 10.537 4.86433 9.73451 3.62523 8.66463C3.01076 8.13407 2.53135 7.56482 2.21448 7.05115C1.87981 6.50863 1.7963 6.14358 1.7963 5.99996C1.7963 5.85634 1.87981 5.49129 2.21448 4.94876C2.53135 4.4351 3.01076 3.86584 3.62523 3.33529C4.86433 2.26541 6.51946 1.46292 8.27778 1.46292C10.0051 1.46292 11.6552 2.3194 12.9145 3.44292C13.5361 3.99755 14.0248 4.58512 14.3485 5.09739C14.5102 5.35329 14.6204 5.57409 14.6871 5.74809C14.7477 5.90604 14.7574 5.98645 14.759 5.99926Z" fill="currentColor" fill-opacity="0.72" />
</svg>
    