<svg width="14" height="16" viewBox="0 0 14 16" fill="none" xmlns="http://www.w3.org/2000/svg">
    <path fill-rule="evenodd" clip-rule="evenodd" d="M7.01381 4.87501C5.30841 4.87501 3.9259 6.27412 3.9259 8.00001C3.9259 9.7259 5.30841 11.125 7.01381 11.125C8.71921 11.125 10.1017 9.7259 10.1017 8.00001C10.1017 6.27412 8.71921 4.87501 7.01381 4.87501ZM5.16107 8.00001C5.16107 6.96448 5.99057 6.12501 7.01381 6.12501C8.03705 6.12501 8.86655 6.96448 8.86655 8.00001C8.86655 9.03555 8.03705 9.87501 7.01381 9.87501C5.99057 9.87501 5.16107 9.03555 5.16107 8.00001Z" fill="currentColor" />
    <path fill-rule="evenodd" clip-rule="evenodd" d="M7.0137 0.5C5.99046 0.5 5.16095 1.33947 5.16095 2.375V2.69525C4.51 2.9281 3.91513 3.27992 3.40171 3.72451L3.12646 3.56368C2.2403 3.04591 1.10718 3.35318 0.595562 4.24998C0.0839407 5.14678 0.387559 6.29351 1.27371 6.81128L1.54824 6.97169C1.48727 7.30544 1.45547 7.6492 1.45547 8.00001C1.45547 8.35355 1.48777 8.69991 1.54967 9.03609L1.27136 9.195C0.378482 9.70481 0.0681883 10.8539 0.58078 11.7524C1.09174 12.6481 2.22516 12.9521 3.1074 12.4302L3.38841 12.264C3.90415 12.7134 4.50276 13.069 5.1583 13.3038L5.15567 13.6086C5.14665 14.6505 5.97874 15.5 7.00829 15.5C8.02518 15.5 8.85202 14.6705 8.86092 13.6415L8.86382 13.3057C9.51533 13.073 10.1107 12.7212 10.6246 12.2765L10.8804 12.4274C11.767 12.9508 12.9051 12.6449 13.4183 11.7453C13.9283 10.8513 13.6284 9.70823 12.7472 9.18815L12.4789 9.02978C12.54 8.69557 12.5719 8.35133 12.5719 8.00001C12.5719 7.6487 12.54 7.30448 12.4789 6.97029L12.7472 6.81189C13.6284 6.2918 13.9283 5.14876 13.4183 4.25477C12.9051 3.35517 11.767 3.04928 10.8803 3.57263L10.6246 3.72358C10.1114 3.27943 9.51694 2.92794 8.86644 2.69525V2.375C8.86644 1.33947 8.03694 0.5 7.0137 0.5ZM6.39612 2.375C6.39612 2.02982 6.67262 1.75 7.0137 1.75C7.35478 1.75 7.63128 2.02982 7.63128 2.375V3.15753C7.63128 3.4427 7.82203 3.69172 8.09493 3.7628C8.86695 3.96389 9.55646 4.37597 10.0994 4.93584C10.2984 5.14104 10.61 5.18239 10.8545 5.03605L10.986 4.95735L10.9892 4.95544L11.5026 4.65239C11.7982 4.47794 12.1776 4.5799 12.3486 4.87977C12.5186 5.17776 12.4186 5.55877 12.1249 5.73213L11.608 6.03725L11.4813 6.10624C11.2272 6.24465 11.1016 6.54276 11.179 6.82416C11.2817 7.1976 11.3368 7.59179 11.3368 8.00001C11.3368 8.40757 11.2819 8.80115 11.1795 9.17405C11.1031 9.45232 11.2251 9.74731 11.4745 9.88762L11.6044 9.96069L12.1249 10.2679C12.4186 10.4413 12.5186 10.8223 12.3486 11.1203C12.1776 11.4201 11.7982 11.5221 11.5027 11.3477L10.986 11.0427C10.9807 11.0396 10.9754 11.0366 10.9701 11.0336L10.8313 10.9572C10.5892 10.8239 10.2891 10.869 10.0958 11.0679C9.55342 11.6259 8.86525 12.0366 8.09493 12.2372C7.82203 12.3083 7.63128 12.5573 7.63128 12.8425V12.9973L7.6258 13.6305C7.62284 13.9735 7.34724 14.25 7.00829 14.25C6.66512 14.25 6.38778 13.9669 6.39078 13.6196L6.39612 13.0055V12.8425C6.39612 12.5573 6.20537 12.3083 5.93247 12.2372C5.15523 12.0348 4.46162 11.6185 3.91703 11.0528C3.71902 10.8471 3.40799 10.8045 3.16302 10.9494L2.48406 11.3511C2.19299 11.5232 1.81904 11.4229 1.65046 11.1274C1.48135 10.831 1.58372 10.4519 1.8783 10.2837L2.5589 9.89506C2.80657 9.75365 2.9268 9.45938 2.85015 9.18225C2.74634 8.80692 2.69063 8.41056 2.69063 8.00001C2.69063 7.59365 2.74521 7.20119 2.84699 6.82926C2.92165 6.55645 2.8058 6.26691 2.5646 6.12354L2.43014 6.04359L1.89129 5.72875C1.59591 5.55616 1.4947 5.17391 1.66524 4.87498C1.83578 4.57605 2.21349 4.47363 2.50888 4.64622L3.03359 4.9528L3.15534 5.0303C3.40134 5.18689 3.72195 5.14872 3.92532 4.93863C4.46865 4.37734 5.15917 3.96423 5.93247 3.7628C6.20537 3.69172 6.39612 3.4427 6.39612 3.15753V2.375Z" fill="currentColor" />
</svg>
    