<svg width="12" height="16" viewBox="0 0 12 16" fill="none" xmlns="http://www.w3.org/2000/svg">
<path fill-rule="evenodd" clip-rule="evenodd" d="M10.5639 4.76361C10.5639 7.14678 8.55632 9.07873 6.0799 9.07873C3.60349 9.07873 1.59595 7.14678 1.59595 4.76361C1.59595 2.38043 3.60349 0.448486 6.0799 0.448486C8.55632 0.448486 10.5639 2.38043 10.5639 4.76361ZM9.06921 4.76361C9.06921 6.35239 7.73085 7.64036 6.0799 7.64036C4.42896 7.64036 3.0906 6.35239 3.0906 4.76361C3.0906 3.17482 4.42896 1.88686 6.0799 1.88686C7.73085 1.88686 9.06921 3.17482 9.06921 4.76361Z" fill="#3784FB"/>
<path fill-rule="evenodd" clip-rule="evenodd" d="M2.11751 10.9296C3.03886 10.249 4.32298 9.79792 6.07994 9.79792C7.8369 9.79792 9.12103 10.249 10.0424 10.9296C10.9568 11.6051 11.4543 12.4625 11.7241 13.1843C11.9615 13.8196 11.7952 14.4415 11.397 14.8822C11.0124 15.3078 10.4302 15.5514 9.81653 15.5514H2.3433C1.72964 15.5514 1.1474 15.3078 0.762835 14.8822C0.364632 14.4414 0.198276 13.8196 0.435751 13.1843C0.705557 12.4625 1.20305 11.6051 2.11751 10.9296ZM3.0276 12.0706C2.39825 12.5355 2.04318 13.1334 1.84217 13.6711C1.80023 13.7834 1.8233 13.8637 1.89075 13.9384C1.97184 14.0281 2.13147 14.113 2.3433 14.113H9.81653C10.0284 14.113 10.188 14.0281 10.2691 13.9384C10.3365 13.8637 10.3596 13.7834 10.3177 13.6712C10.1167 13.1334 9.76161 12.5355 9.13226 12.0706C8.5098 11.6108 7.55885 11.2363 6.07994 11.2363C4.60103 11.2363 3.65008 11.6107 3.0276 12.0706Z" fill="#3784FB"/>
</svg>
