<svg width="17" height="16" viewBox="0 0 17 16" fill="none" xmlns="http://www.w3.org/2000/svg">
<path d="M7.16663 7.11144C7.16663 6.86598 7.36561 6.66699 7.61107 6.66699H8.49996C8.74542 6.66699 8.9444 6.86598 8.9444 7.11144V9.33366H9.83329C10.0788 9.33366 10.2777 9.53264 10.2777 9.7781C10.2777 10.0236 10.0788 10.2225 9.83329 10.2225H7.16663C6.92117 10.2225 6.72218 10.0236 6.72218 9.7781C6.72218 9.53264 6.92117 9.33366 7.16663 9.33366H8.05552V7.55588H7.61107C7.36561 7.55588 7.16663 7.3569 7.16663 7.11144Z" fill="currentColor" fill-opacity="0.72"/>
<path d="M8.27774 6.22255C8.64593 6.22255 8.9444 5.92407 8.9444 5.55588C8.9444 5.18769 8.64593 4.88921 8.27774 4.88921C7.90955 4.88921 7.61107 5.18769 7.61107 5.55588C7.61107 5.92407 7.90955 6.22255 8.27774 6.22255Z" fill="currentColor" fill-opacity="0.72"/>
<path fill-rule="evenodd" clip-rule="evenodd" d="M3.16663 8.00033C3.16663 5.05481 5.55444 2.66699 8.49996 2.66699C11.4455 2.66699 13.8333 5.05481 13.8333 8.00033C13.8333 10.9458 11.4455 13.3337 8.49996 13.3337C5.55444 13.3337 3.16663 10.9458 3.16663 8.00033ZM8.49996 3.55588C6.04536 3.55588 4.05551 5.54573 4.05551 8.00033C4.05551 10.4549 6.04536 12.4448 8.49996 12.4448C10.9546 12.4448 12.9444 10.4549 12.9444 8.00033C12.9444 5.54573 10.9546 3.55588 8.49996 3.55588Z" fill="currentColor" fill-opacity="0.72"/>
</svg>
