<svg width="12" height="12" viewBox="0 0 12 12" fill="none" xmlns="http://www.w3.org/2000/svg">
<path d="M4.66663 5.11144C4.66663 4.86598 4.86561 4.66699 5.11107 4.66699H5.99996C6.24542 4.66699 6.4444 4.86598 6.4444 5.11144V7.33366H7.33329C7.57875 7.33366 7.77774 7.53264 7.77774 7.7781C7.77774 8.02356 7.57875 8.22255 7.33329 8.22255H4.66663C4.42117 8.22255 4.22218 8.02356 4.22218 7.7781C4.22218 7.53264 4.42117 7.33366 4.66663 7.33366H5.55552V5.55588H5.11107C4.86561 5.55588 4.66663 5.3569 4.66663 5.11144Z" fill="currentColor" fill-opacity="0.4"/>
<path d="M5.77774 4.22255C6.14593 4.22255 6.4444 3.92407 6.4444 3.55588C6.4444 3.18769 6.14593 2.88921 5.77774 2.88921C5.40955 2.88921 5.11107 3.18769 5.11107 3.55588C5.11107 3.92407 5.40955 4.22255 5.77774 4.22255Z" fill="currentColor" fill-opacity="0.4"/>
<path fill-rule="evenodd" clip-rule="evenodd" d="M0.666626 6.00033C0.666626 3.05481 3.05444 0.666992 5.99996 0.666992C8.94548 0.666992 11.3333 3.05481 11.3333 6.00033C11.3333 8.94585 8.94548 11.3337 5.99996 11.3337C3.05444 11.3337 0.666626 8.94585 0.666626 6.00033ZM5.99996 1.55588C3.54536 1.55588 1.55551 3.54573 1.55551 6.00033C1.55551 8.45493 3.54536 10.4448 5.99996 10.4448C8.45456 10.4448 10.4444 8.45493 10.4444 6.00033C10.4444 3.54573 8.45456 1.55588 5.99996 1.55588Z" fill="currentColor" fill-opacity="0.4"/>
</svg>
