<!-- <svg width="24" height="24" viewBox="0 0 24 24" fill="none" xmlns="http://www.w3.org/2000/svg">
    <rect x="2" y="2" width="16" height="16" rx="4" fill="#FFF2F5" fill-opacity="0.2" />
</svg> -->
<svg width="24" height="24" viewBox="0 0 20 20" fill="none" xmlns="http://www.w3.org/2000/svg">
    <path d="M2 5.55556C2 3.59188 3.59188 2 5.55556 2H14.4444C16.4081 2 18 3.59188 18 5.55556V14.4444C18 16.4081 16.4081 18 14.4444 18H5.55556C3.59188 18 2 16.4081 2 14.4444V5.55556Z" fill="#DBFBEC" fill-opacity="0.2"/>
    <path d="M7 12.9999L12.6667 7.33325L7 12.9999Z" fill="#6FCF97"/>
    <path fill-rule="evenodd" clip-rule="evenodd" d="M7.40249 6.88301C7.40249 6.5961 7.63507 6.36353 7.92197 6.36353L13.1168 6.36353C13.2545 6.36353 13.3867 6.41826 13.4841 6.51568C13.5815 6.6131 13.6363 6.74523 13.6363 6.88301L13.6363 12.0778C13.6363 12.3647 13.4037 12.5973 13.1168 12.5973C12.8299 12.5973 12.5973 12.3647 12.5973 12.0778L12.5973 8.13714L7.25033 13.4841C7.04746 13.687 6.71855 13.687 6.51568 13.4841C6.31281 13.2812 6.31281 12.9523 6.51568 12.7494L11.8626 7.40249L7.92197 7.40249C7.63507 7.40249 7.40249 7.16991 7.40249 6.88301Z" fill="#D65656" stroke="#D65656" stroke-width="0.5" stroke-linecap="round" stroke-linejoin="round" />

    </svg>
    