<svg width="9" height="8" viewBox="0 0 9 8" fill="none" xmlns="http://www.w3.org/2000/svg">
    <path d="M1.22727 1.09091C1.22727 0.890078 1.39008 0.727273 1.59091 0.727273H4.13636C4.33719 0.727273 4.5 0.564467 4.5 0.363636C4.5 0.162806 4.33719 0 4.13636 0H1.59091C0.988417 0 0.5 0.488417 0.5 1.09091V6.90909C0.5 7.51158 0.988417 8 1.59091 8H7.40909C8.01158 8 8.5 7.51158 8.5 6.90909V4.36364C8.5 4.16281 8.33719 4 8.13636 4C7.93553 4 7.77273 4.16281 7.77273 4.36364V6.90909C7.77273 7.10992 7.60992 7.27273 7.40909 7.27273H1.59091C1.39008 7.27273 1.22727 7.10992 1.22727 6.90909V1.09091Z" fill="currentColor" fill-opacity="0.4" />
    <path d="M5.95455 0C5.75372 0 5.59091 0.162806 5.59091 0.363636C5.59091 0.564467 5.75372 0.727273 5.95455 0.727273H7.25847L3.15196 4.83378C3.00995 4.97579 3.00995 5.20603 3.15196 5.34804C3.29397 5.49005 3.52421 5.49005 3.66622 5.34804L7.77273 1.24153V2.54545C7.77273 2.74629 7.93553 2.90909 8.13636 2.90909C8.33719 2.90909 8.5 2.74629 8.5 2.54545V0.363636C8.5 0.162806 8.33719 0 8.13636 0H5.95455Z" fill="currentColor" fill-opacity="0.4" />
</svg>
    