<svg width="12" height="12" viewBox="0 0 12 12" fill="none" xmlns="http://www.w3.org/2000/svg">
    <path fill-rule="evenodd" clip-rule="evenodd" d="M8.58357 9.26928C7.74776 9.95324 6.67936 10.3636 5.51511 10.3636C2.83737 10.3636 0.666626 8.19286 0.666626 5.51511C0.666626 2.83737 2.83737 0.666626 5.51511 0.666626C8.19286 0.666626 10.3636 2.83737 10.3636 5.51511C10.3636 6.67937 9.95323 7.74778 9.26926 8.5836L11.1913 10.5056C11.3806 10.6949 11.3806 11.0019 11.1913 11.1913C11.0019 11.3806 10.6949 11.3806 10.5056 11.1913L8.58357 9.26928ZM9.3939 5.51511C9.3939 7.65731 7.65731 9.3939 5.51511 9.3939C3.37292 9.3939 1.63632 7.65731 1.63632 5.51511C1.63632 3.37292 3.37292 1.63632 5.51511 1.63632C7.65731 1.63632 9.3939 3.37292 9.3939 5.51511Z" fill="currentColor" fill-opacity="0.9"/>
    </svg>
    