<svg width="20" height="20" viewBox="0 0 20 20" fill="none" xmlns="http://www.w3.org/2000/svg">
    <path fill-rule="evenodd" clip-rule="evenodd" d="M0.833496 3.33337C0.833496 1.95266 1.95278 0.833374 3.3335 0.833374H16.6668C18.0475 0.833374 19.1668 1.95266 19.1668 3.33337V16.6667C19.1668 18.0474 18.0475 19.1667 16.6668 19.1667H3.3335C1.95278 19.1667 0.833496 18.0474 0.833496 16.6667V3.33337ZM3.3335 2.50004C2.87326 2.50004 2.50016 2.87314 2.50016 3.33337V16.6667C2.50016 17.1269 2.87326 17.5 3.3335 17.5H16.6668C17.1271 17.5 17.5002 17.1269 17.5002 16.6667V3.33337C17.5002 2.87314 17.1271 2.50004 16.6668 2.50004H3.3335Z" fill="currentColor" fill-opacity="0.72" />
    <path fill-rule="evenodd" clip-rule="evenodd" d="M5.14012 8.79562C4.88483 8.41268 4.9883 7.89529 5.37124 7.64L7.87124 5.97333C8.12696 5.80286 8.45574 5.78696 8.72671 5.93198C8.99767 6.07699 9.16683 6.35938 9.16683 6.66671V13.3334C9.16683 13.7936 8.79373 14.1667 8.33349 14.1667C7.87326 14.1667 7.50016 13.7936 7.50016 13.3334V8.2238L6.29575 9.02675C5.91281 9.28204 5.39541 9.17856 5.14012 8.79562Z" fill="currentColor" fill-opacity="0.72" />
    <path fill-rule="evenodd" clip-rule="evenodd" d="M11.6668 5.83337C11.2066 5.83337 10.8335 6.20647 10.8335 6.66671V13.3334C10.8335 13.6704 11.0365 13.9743 11.3479 14.1033C11.6593 14.2323 12.0178 14.161 12.2561 13.9226L14.7561 11.4226C15.0815 11.0972 15.0815 10.5696 14.7561 10.2441C14.4306 9.91868 13.903 9.91868 13.5776 10.2441L12.5002 11.3215V6.66671C12.5002 6.20647 12.1271 5.83337 11.6668 5.83337Z" fill="currentColor" fill-opacity="0.72" />
</svg>
    