<svg width="12" height="12" viewBox="0 0 12 12" fill="none" xmlns="http://www.w3.org/2000/svg">
<path d="M7.06871 8.5358C7.06871 8.95721 6.73945 9.29884 6.33329 9.29884C5.92713 9.29884 5.59788 8.95721 5.59788 8.5358C5.59788 8.11439 5.92713 7.77276 6.33329 7.77276C6.73945 7.77276 7.06871 8.11439 7.06871 8.5358Z" fill="#D69E3C"/>
<path d="M6.13071 4.21193C5.84388 4.21193 5.61831 4.46629 5.64213 4.76287L5.82428 7.03085C5.83487 7.16268 5.94108 7.26407 6.06858 7.26407H6.59801C6.72551 7.26407 6.83172 7.16268 6.8423 7.03085L7.02446 4.76287C7.04828 4.46629 6.82271 4.21193 6.53588 4.21193H6.13071Z" fill="#D69E3C"/>
<path fill-rule="evenodd" clip-rule="evenodd" d="M5.05625 1.43592C5.6209 0.410683 7.04569 0.410683 7.61033 1.43592L11.804 9.05044C12.3643 10.0678 11.6563 11.3337 10.527 11.3337H2.13963C1.01029 11.3337 0.302283 10.0678 0.862592 9.05044L5.05625 1.43592ZM6.75897 1.94068C6.57076 1.59894 6.09583 1.59894 5.90761 1.94068L1.71395 9.55521C1.52718 9.89433 1.76319 10.3163 2.13963 10.3163H10.527C10.9034 10.3163 11.1394 9.89433 10.9526 9.55521L6.75897 1.94068Z" fill="#D69E3C"/>
</svg>
