<svg width="24" height="24" viewBox="0 0 24 24" fill="none" xmlns="http://www.w3.org/2000/svg">
<path d="M19.2 3H10.2C9.2073 3 8.4 3.8073 8.4 4.8V8.4H4.8C3.8073 8.4 3 9.2073 3 10.2V19.2C3 20.1927 3.8073 21 4.8 21H13.8C14.7927 21 15.6 20.1927 15.6 19.2V15.6H19.2C20.1927 15.6 21 14.7927 21 13.8V4.8C21 3.8073 20.1927 3 19.2 3ZM4.8 19.2V10.2H13.8L13.8018 19.2H4.8ZM19.2 13.8H15.6V10.2C15.6 9.2073 14.7927 8.4 13.8 8.4H10.2V4.8H19.2V13.8Z" fill="currentColor" fill-opacity="0.9"/>
<path d="M7 12.8333C7 12.3731 7.3731 12 7.83333 12H11.1667C11.6269 12 12 12.3731 12 12.8333C12 13.2936 11.6269 13.6667 11.1667 13.6667H7.83333C7.3731 13.6667 7 13.2936 7 12.8333ZM7 16.1667C7 15.7064 7.3731 15.3333 7.83333 15.3333H11.1667C11.6269 15.3333 12 15.7064 12 16.1667C12 16.6269 11.6269 17 11.1667 17H7.83333C7.3731 17 7 16.6269 7 16.1667Z" fill="currentColor" fill-opacity="0.9"/>
</svg>
