<svg width="24" height="24" viewBox="0 0 24 24" fill="none" xmlns="http://www.w3.org/2000/svg">
<path fill-rule="evenodd" clip-rule="evenodd" d="M19.1548 8.57143C19.1548 11.0962 17.028 13.1429 14.4045 13.1429C11.781 13.1429 9.6542 11.0962 9.6542 8.57143C9.6542 6.0467 11.781 4 14.4045 4C17.028 4 19.1548 6.0467 19.1548 8.57143ZM17.5713 8.57143C17.5713 10.2546 16.1535 11.619 14.4045 11.619C12.6555 11.619 11.2376 10.2546 11.2376 8.57143C11.2376 6.88827 12.6555 5.52381 14.4045 5.52381C16.1535 5.52381 17.5713 6.88827 17.5713 8.57143Z" fill="currentColor" fill-opacity="0.9"/>
<path d="M9.01998 5.58462C9.4485 5.50092 9.72536 5.09876 9.63838 4.68638C9.55139 4.274 9.1335 4.00756 8.70499 4.09127C6.5364 4.5149 4.90391 6.35876 4.90391 8.57127C4.90391 10.7838 6.5364 12.6276 8.70499 13.0513C9.1335 13.135 9.55139 12.8685 9.63838 12.4562C9.72536 12.0438 9.4485 11.6416 9.01998 11.5579C7.57481 11.2756 6.48734 10.0448 6.48734 8.57127C6.48734 7.09774 7.57481 5.86693 9.01998 5.58462Z" fill="currentColor" fill-opacity="0.9"/>
<path fill-rule="evenodd" clip-rule="evenodd" d="M10.2067 15.1036C11.1828 14.3826 12.5432 13.9048 14.4045 13.9048C16.2658 13.9048 17.6262 14.3826 18.6023 15.1037C19.5711 15.8193 20.0981 16.7276 20.3839 17.4923C20.6355 18.1653 20.4592 18.8241 20.0374 19.291C19.63 19.7419 19.0132 20 18.3631 20H10.4459C9.79583 20 9.17901 19.7419 8.7716 19.291C8.34975 18.8241 8.17351 18.1653 8.42509 17.4923C8.71092 16.7276 9.23796 15.8193 10.2067 15.1036ZM11.1709 16.3124C10.5042 16.8049 10.128 17.4384 9.91505 18.0081C9.87061 18.1269 9.89505 18.2121 9.96651 18.2912C10.0524 18.3862 10.2215 18.4762 10.4459 18.4762H18.3631C18.5875 18.4762 18.7566 18.3863 18.8425 18.2912C18.9139 18.2121 18.9384 18.1269 18.894 18.0081C18.681 17.4384 18.3049 16.8049 17.6382 16.3124C16.9787 15.8253 15.9713 15.4286 14.4045 15.4286C12.8378 15.4286 11.8303 15.8253 11.1709 16.3124Z" fill="currentColor" fill-opacity="0.9"/>
<path d="M5.10257 17.9252C5.26464 17.3247 5.54281 16.6932 6.00186 16.2213C6.43816 15.7727 7.07362 15.4286 8.07077 15.4286C8.50802 15.4286 8.86249 15.0875 8.86249 14.6667C8.86249 14.2459 8.50802 13.9048 8.07077 13.9048C6.62932 13.9048 5.5773 14.428 4.84588 15.1799C4.13723 15.9084 3.76745 16.8105 3.56999 17.5422C3.18743 18.9597 4.44036 20 5.69561 20H6.30461C6.74186 20 7.09632 19.6589 7.09632 19.2381C7.09632 18.8173 6.74186 18.4762 6.30461 18.4762H5.69561C5.47192 18.4762 5.29379 18.3877 5.19252 18.28C5.1008 18.1825 5.06431 18.067 5.10257 17.9252Z" fill="currentColor" fill-opacity="0.9"/>
</svg>
